<?xml version="1.0" encoding="utf-8"?>
<!-- Generator: Adobe Illustrator 27.3.1, SVG Export Plug-In . SVG Version: 6.00 Build 0)  -->
<svg version="1.1" id="Слой_1" xmlns="http://www.w3.org/2000/svg" xmlns:xlink="http://www.w3.org/1999/xlink" x="0px" y="0px"
	 viewBox="0 0 263.6 249.9" style="enable-background:new 0 0 263.6 249.9;" xml:space="preserve">
<style type="text/css">
	.st0{fill:#1F75B3;}
	.st1{fill:#990F0F;}
</style>
<g>
	<g>
		<path class="st0" d="M181.7,236.5h-51.5C119,184.7,107.8,132.9,96.5,81.1c-16.1,51.8-32.3,103.6-48.4,155.4c-12,0-24,0-35.9,0
			C36.5,162.3,60.7,88.1,85,14c16.4-0.1,32.9-0.3,49.3-0.4c9.3,55.9,18.7,111.8,28,167.7c19.1-55.9,38.1-111.8,57.2-167.7
			c10.6,0,21.1,0,31.7,0L181.7,236.5z"/>
		<g>
			<path class="st0" d="M181.7,224.5c-17.2,0-34.3,0-51.5,0c3.9,2.9,7.7,5.9,11.6,8.8c-11.2-51.8-22.4-103.6-33.7-155.4
				c-2.6-12.1-19.8-10.7-23.1,0c-16.1,51.8-32.3,103.6-48.4,155.4c3.9-2.9,7.7-5.9,11.6-8.8c-12,0-24,0-35.9,0
				c3.9,5.1,7.7,10.1,11.6,15.2C48,165.5,72.3,91.3,96.6,17.2C92.7,20.1,88.9,23,85,26c16.4-0.1,32.9-0.3,49.3-0.4
				c-3.9-2.9-7.7-5.9-11.6-8.8c9.3,55.9,18.7,111.8,28,167.7c0.9,5.1,6.7,8.8,11.6,8.8c5.5,0,9.9-3.8,11.6-8.8
				C193,128.6,212,72.7,231.1,16.8c-3.9,2.9-7.7,5.9-11.6,8.8c10.6,0,21.1,0,31.7,0c-3.9-5.1-7.7-10.1-11.6-15.2
				c-7.8,25.1-15.7,50.2-23.5,75.4c-12.5,40-24.9,80-37.4,120c-2.9,9.2-5.7,18.3-8.6,27.5c-4.6,14.8,18.6,21.1,23.1,6.4
				c7.8-25.1,15.7-50.2,23.5-75.4c12.5-40,24.9-80,37.4-120c2.9-9.2,5.7-18.3,8.6-27.5c2.3-7.5-4-15.2-11.6-15.2
				c-10.6,0-21.1,0-31.7,0c-5.5,0-9.9,3.8-11.6,8.8c-19.1,55.9-38.1,111.8-57.2,167.7c7.7,0,15.4,0,23.1,0
				c-9.3-55.9-18.7-111.8-28-167.7c-0.8-5.1-6.7-8.8-11.6-8.8C117.9,1.7,101.5,1.8,85,2c-5.5,0-9.9,3.7-11.6,8.8
				C49.2,84.9,24.9,159.1,0.6,233.3c-2.4,7.5,4.1,15.2,11.6,15.2c12,0,24,0,35.9,0c5.4,0,10-3.8,11.6-8.8
				C75.8,187.9,92,136.1,108.1,84.3c-7.7,0-15.4,0-23.1,0c11.2,51.8,22.4,103.6,33.7,155.4c1.1,5.1,6.5,8.8,11.6,8.8
				c17.2,0,34.3,0,51.5,0C197.1,248.5,197.2,224.5,181.7,224.5z"/>
		</g>
	</g>
</g>
<g>
	<g>
		<path class="st1" d="M181.7,236.5h-51.5c-8.4-36.4-16.8-72.9-25.2-109.3c9.8-37.8,19.6-75.7,29.3-113.5l0,0
			c9.3,55.9,18.7,111.8,28,167.7c19.1-55.9,38.1-111.8,57.2-167.7c10.6,0,21.1,0,31.7,0L181.7,236.5z"/>
		<g>
			<path class="st1" d="M181.7,224.5c-17.2,0-34.3,0-51.5,0c3.9,2.9,7.7,5.9,11.6,8.8c-8.4-36.4-16.8-72.9-25.2-109.3
				c0,2.1,0,4.3,0,6.4c9.8-37.8,19.6-75.7,29.3-113.5c-7.7,0-15.4,0-23.1,0c9.3,55.9,18.7,111.8,28,167.7c0.9,5.1,6.7,8.8,11.6,8.8
				c5.5,0,9.9-3.8,11.6-8.8C193,128.6,212,72.7,231.1,16.8c-3.9,2.9-7.7,5.9-11.6,8.8c10.6,0,21.1,0,31.7,0
				c-3.9-5.1-7.7-10.1-11.6-15.2c-7.8,25.1-15.7,50.2-23.5,75.4c-12.5,40-24.9,80-37.4,120c-2.9,9.2-5.7,18.3-8.6,27.5
				c-4.6,14.8,18.6,21.1,23.1,6.4c7.8-25.1,15.7-50.2,23.5-75.4c12.5-40,24.9-80,37.4-120c2.9-9.2,5.7-18.3,8.6-27.5
				c2.3-7.5-4-15.2-11.6-15.2c-10.6,0-21.1,0-31.7,0c-5.5,0-9.9,3.8-11.6,8.8c-19.1,55.9-38.1,111.8-57.2,167.7c7.7,0,15.4,0,23.1,0
				c-9.3-55.9-18.7-111.8-28-167.7c-2-12-20.3-10.8-23.1,0c-5,19.2-9.9,38.5-14.9,57.7c-2.3,9-4.6,18-7,26.9
				c-2.5,9.5-5.6,19.2-7.5,28.9c-1,5.3,1,10.8,2.2,16c1.2,5.1,2.4,10.2,3.5,15.3c2.1,9,4.1,17.9,6.2,26.9
				c4.4,19.2,8.9,38.4,13.3,57.5c1.2,5.1,6.5,8.8,11.6,8.8c17.2,0,34.3,0,51.5,0C197.1,248.5,197.2,224.5,181.7,224.5z"/>
		</g>
	</g>
</g>
</svg>
