<?xml version="1.0" encoding="utf-8"?>
<!-- Generator: Adobe Illustrator 27.3.1, SVG Export Plug-In . SVG Version: 6.00 Build 0)  -->
<svg version="1.1" id="Слой_1" xmlns="http://www.w3.org/2000/svg" xmlns:xlink="http://www.w3.org/1999/xlink" x="0px" y="0px"
	 viewBox="0 0 263.6 249.9" style="enable-background:new 0 0 263.6 249.9;" xml:space="preserve">
<style type="text/css">
	.st0{fill:#1F75B3;}
	.st1{fill:#990F0F;}
</style>
<g>
	<g>
		<path class="st0" d="M182.3,230.7h-46l-30.1-148L63,230.7H19.3L81.4,18.3H140L165.1,140l35.6-121.6h43.7L182.3,230.7z"/>
		<g>
			<path class="st0" d="M182.3,212.7c-15.3,0-30.7,0-46,0c5.8,4.4,11.6,8.8,17.4,13.2c-8.8-43.2-17.6-86.4-26.3-129.6
				c-1.2-6.1-2.5-12.3-3.7-18.4c-1.5-7.4-9.9-13.5-17.4-13.2c-8,0.4-15.1,5.4-17.4,13.2C76.3,121.1,63.6,164.3,51,207.6
				c-1.8,6.1-3.6,12.2-5.4,18.3c5.8-4.4,11.6-8.8,17.4-13.2c-14.6,0-29.1,0-43.7,0c5.8,7.6,11.6,15.2,17.4,22.8
				c7-23.9,14-47.8,21-71.7C68.8,125.6,79.9,87.5,91,49.4c2.6-8.8,5.1-17.5,7.7-26.3c-5.8,4.4-11.6,8.8-17.4,13.2
				c19.5,0,39.1,0,58.6,0c-5.8-4.4-11.6-8.8-17.4-13.2c7.3,35.6,14.7,71.1,22,106.7c1,5,2.1,10,3.1,15c1.5,7.4,9.9,13.5,17.4,13.2
				c8-0.4,15.1-5.4,17.4-13.2c10.4-35.5,20.8-71.1,31.2-106.6c1.5-5,2.9-10,4.4-15.1c-5.8,4.4-11.6,8.8-17.4,13.2
				c14.6,0,29.1,0,43.7,0c-5.8-7.6-11.6-15.2-17.4-22.8c-7,23.9-14,47.8-21,71.7c-11.1,38.1-22.3,76.2-33.4,114.3
				c-2.6,8.8-5.1,17.5-7.7,26.3c-2.6,9,3.2,20,12.6,22.1c9.6,2.2,19.3-2.9,22.1-12.6c7-23.9,14-47.8,21-71.7
				c11.1-38.1,22.3-76.2,33.4-114.3c2.6-8.8,5.1-17.5,7.7-26.3c3.3-11.3-5.8-22.8-17.4-22.8c-14.6,0-29.1,0-43.7,0
				c-8,0-15.1,5.6-17.4,13.2c-10.4,35.5-20.8,71.1-31.2,106.6c-1.5,5-2.9,10-4.4,15.1c11.6,0,23.1,0,34.7,0
				c-7.3-35.6-14.7-71.1-22-106.7c-1-5-2.1-10-3.1-15c-1.6-7.7-9.8-13.2-17.4-13.2c-19.5,0-39.1,0-58.6,0c-8,0-15.1,5.6-17.4,13.2
				c-7,23.9-14,47.8-21,71.7c-11.1,38.1-22.3,76.2-33.4,114.3c-2.6,8.8-5.1,17.5-7.7,26.3c-3.3,11.3,5.8,22.8,17.4,22.8
				c14.6,0,29.1,0,43.7,0c8,0,15.1-5.6,17.4-13.2c12.6-43.2,25.3-86.5,37.9-129.7c1.8-6.1,3.6-12.2,5.4-18.3c-11.6,0-23.1,0-34.7,0
				c8.8,43.2,17.6,86.4,26.3,129.6c1.2,6.1,2.5,12.3,3.7,18.4c1.6,7.7,9.9,13.2,17.4,13.2c15.3,0,30.7,0,46,0c9.4,0,18.4-8.3,18-18
				C199.9,220.9,192.4,212.7,182.3,212.7z"/>
		</g>
	</g>
</g>
<g>
	<g>
		<path class="st1" d="M182.3,230.7h-46C122.9,160,109.4,89.4,96,18.7c14.7-0.1,29.4-0.2,44-0.4L165.1,140l35.6-121.6h43.7
			L182.3,230.7z"/>
		<g>
			<path class="st1" d="M182.3,224.7c-15.3,0-30.7,0-46,0c1.9,1.5,3.9,2.9,5.8,4.4c-13.5-70.7-26.9-141.3-40.4-212
				c-1.9,2.5-3.9,5.1-5.8,7.6c14.7-0.1,29.4-0.2,44-0.4c-1.9-1.5-3.9-2.9-5.8-4.4c7.3,35.6,14.7,71.1,22,106.7c1,5,2.1,10,3.1,15
				c1.2,6,10,5.4,11.6,0c10.4-35.5,20.8-71.1,31.2-106.6c1.5-5,2.9-10,4.4-15.1c-1.9,1.5-3.9,2.9-5.8,4.4c14.6,0,29.1,0,43.7,0
				c-1.9-2.5-3.9-5.1-5.8-7.6c-7,23.9-14,47.8-21,71.7c-11.1,38.1-22.3,76.2-33.4,114.3c-2.6,8.8-5.1,17.5-7.7,26.3
				c-2.2,7.4,9.4,10.6,11.6,3.2c7-23.9,14-47.8,21-71.7c11.1-38.1,22.3-76.2,33.4-114.3c2.6-8.8,5.1-17.5,7.7-26.3
				c1.1-3.8-1.9-7.6-5.8-7.6c-14.6,0-29.1,0-43.7,0c-2.7,0-5,1.9-5.8,4.4c-10.4,35.5-20.8,71.1-31.2,106.6c-1.5,5-2.9,10-4.4,15.1
				c3.9,0,7.7,0,11.6,0c-7.3-35.6-14.7-71.1-22-106.7c-1-5-2.1-10-3.1-15c-0.5-2.5-3.3-4.4-5.8-4.4c-14.7,0.1-29.4,0.2-44,0.4
				c-4.1,0-6.5,3.8-5.8,7.6c13.5,70.7,26.9,141.3,40.4,212c0.5,2.6,3.3,4.4,5.8,4.4c15.3,0,30.7,0,46,0
				C190.1,236.7,190.1,224.7,182.3,224.7z"/>
		</g>
	</g>
</g>
</svg>
