<?xml version="1.0" encoding="utf-8"?>
<!-- Generator: Adobe Illustrator 27.3.1, SVG Export Plug-In . SVG Version: 6.00 Build 0)  -->
<svg version="1.1" id="Слой_1" xmlns="http://www.w3.org/2000/svg" xmlns:xlink="http://www.w3.org/1999/xlink" x="0px" y="0px"
	 viewBox="0 0 270.1 350.4" style="enable-background:new 0 0 270.1 350.4;" xml:space="preserve">
<style type="text/css">
	.st0{fill:#1F75B3;}
	.st1{fill:url(#SVGID_1_);}
	.st2{fill:url(#SVGID_00000121991309824013296900000014435486709391670461_);}
	.st3{fill:url(#SVGID_00000122683305397693540300000004198614200812686990_);}
	.st4{fill:url(#SVGID_00000124149421306019718750000009789439636516377254_);}
	.st5{fill:url(#SVGID_00000177442307900016986200000009689973740448957085_);}
	.st6{fill:url(#SVGID_00000015349215543179240120000000159955754183408039_);}
	.st7{fill:url(#SVGID_00000030466624013605003230000002391841344543532182_);}
	.st8{fill:url(#SVGID_00000107570948653647422460000004484980882275747456_);}
	.st9{fill:url(#SVGID_00000178182138835003167000000007336431097904236706_);}
	.st10{fill:url(#SVGID_00000067939851374248976830000002253022815042905229_);}
	.st11{fill:url(#SVGID_00000121999056605124111430000007990268949635479482_);}
	.st12{fill:url(#SVGID_00000036214404139186404990000014426851134778066865_);}
	.st13{fill:url(#SVGID_00000024705120465323421510000004599319450034247090_);}
</style>
<g>
	<g>
		<path class="st0" d="M54.9,336.2c-13.7,0-27.5,0-41.2,0c17.5-59.7,35-119.3,52.4-179c42.7-1.7,64.1-2.5,64.1-2.3
			c0,0.1-8.3,0.5-24.9,1.3C88.5,216.2,71.7,276.2,54.9,336.2z"/>
		<g>
			<path class="st0" d="M54.9,324.2c-13.7,0-27.5,0-41.2,0c3.9,5.1,7.7,10.1,11.6,15.2c17.5-59.7,35-119.3,52.4-179
				c-3.9,2.9-7.7,5.9-11.6,8.8c15.9-0.6,31.7-1.3,47.6-1.8c4-0.1,8.1-0.3,12.1-0.4c1,0,2.1,0,3.2-0.1c2-0.2,1.7,0.9-2-0.4
				c0-7.7,0-15.4,0-23.1c4.4-1.3,3.2-0.4,1.2-0.3c-1.6,0.1-3.2,0.2-4.8,0.3c-6.1,0.3-12.1,0.6-18.2,0.9c-5.3,0.3-10.1,3.6-11.6,8.8
				c-16.8,60-33.6,120-50.3,180c-4.2,14.9,19,21.3,23.1,6.4c16.8-60,33.6-120,50.3-180c-3.9,2.9-7.7,5.9-11.6,8.8
				c6.4-0.3,12.8-0.6,19.2-1c2.8-0.1,6.3,0,8.9-0.8c11.9-3.5,10.9-19.2,0-23.1c-2-0.7-4.7-0.4-6.8-0.4c-4,0.1-7.9,0.3-11.9,0.4
				c-16.2,0.6-32.4,1.2-48.5,1.9c-5.4,0.2-10,3.6-11.6,8.8c-17.5,59.7-35,119.3-52.4,179c-2.2,7.5,3.9,15.2,11.6,15.2
				c13.7,0,27.5,0,41.2,0C70.3,348.2,70.4,324.2,54.9,324.2z"/>
		</g>
	</g>
</g>
<g>
	<g>
		<linearGradient id="SVGID_1_" gradientUnits="userSpaceOnUse" x1="77.7427" y1="174.6693" x2="256.8991" y2="174.6693">
			<stop  offset="0" style="stop-color:#BE4115"/>
			<stop  offset="0.1425" style="stop-color:#AF1515"/>
			<stop  offset="1" style="stop-color:#AF1515"/>
		</linearGradient>
		<path class="st1" d="M196,335.9c-10.3,0-20.6,0-30.9,0c22.5-125.3,37.4-173.5,47.6-190.7c1.2-2.1,6.8-11.2,10.2-24.5
			c2.5-9.7,6.8-28.3-1.2-47.2c-7.5-17.7-26.9-34.1-51.4-35.3c-22.1-1-42.2,10.6-53.2,28.1c-15,23.9-6.9,49-5.8,52.4
			c-10.2,0.2-20.3,0.4-30.5,0.6c-2-7-6.8-27.3,1.8-50.8c1.5-4.1,9.7-25.5,32.3-40.6c29.4-19.7,61.2-14,68.1-12.5
			c36.2,7.4,63,36.2,71.1,65.7c7.5,27.5-2.2,51.7-7.8,66.3C230.7,188.5,211.8,248.8,196,335.9z"/>
		<g>
			
				<linearGradient id="SVGID_00000160884254230753730240000008718335863826498484_" gradientUnits="userSpaceOnUse" x1="76.7427" y1="174.6826" x2="257.8991" y2="174.6826">
				<stop  offset="0" style="stop-color:#BE4115"/>
				<stop  offset="0.1201" style="stop-color:#B01915"/>
				<stop  offset="0.5" style="stop-color:#AF1515"/>
				<stop  offset="1" style="stop-color:#AF1515"/>
			</linearGradient>
			<path style="fill:url(#SVGID_00000160884254230753730240000008718335863826498484_);" d="M196,323.9c-10.3,0-20.6,0-30.9,0
				c3.9,5.1,7.7,10.1,11.6,15.2c7-39,14.4-77.9,23.6-116.4c4.8-20.2,9.8-40.6,17.4-60c0.2-0.6,0.5-1.3,0.8-1.9
				c0.6-1.6,1.9-2.4-0.1,0.2c0.8-1,1.2-2.8,1.8-4c1-2.1,2.1-4.1,3.2-6c8.7-15,13.9-32.2,14.9-49.6c1.2-21.3-6.8-42.5-22.9-56.6
				c-16.2-14.3-37.4-20.8-58.8-17.6C133.8,30.5,113,46,103.2,66.8c-7.9,16.9-9.4,37.3-3.4,55.1c3.9-5.1,7.7-10.1,11.6-15.2
				c-10.2,0.2-20.3,0.4-30.5,0.6c3.9,2.9,7.7,5.9,11.6,8.8c-0.7-2.3-1.2-4.7-1.7-7.1c-0.1-0.7-0.3-1.4-0.4-2.1
				c-0.6-3.6,0.1,1.4-0.1-0.9c-0.2-2.2-0.4-4.4-0.5-6.7c-0.3-9.6,1.2-18.9,4.5-28c0.2-0.6,0.6-1.2,0.7-1.8c0.3-1.3-1.2,2.5-0.5,1.2
				c0.3-0.5,0.5-1.1,0.7-1.6c1.2-2.5,2.5-5,3.9-7.4c4.3-7.3,8.5-12.4,15.1-18.3c13.5-12.1,31.4-17.7,48.3-18c3.1,0,6.3,0.1,9.4,0.3
				c1.5,0.1,3,0.3,4.5,0.5c-3-0.3-0.3,0,1,0.2c6.7,1.2,13.8,3.2,19.7,6c31.8,14.7,53.3,47.8,46.4,83.4c-2.8,14.7-9,28.4-14,42.4
				c-4.9,13.8-9.5,27.7-13.8,41.7c-13.2,43.6-23.3,88-31.5,132.8c-1.2,6.4,1.7,12.9,8.4,14.8c5.8,1.6,13.6-2,14.8-8.4
				c7.8-43,17.5-85.7,29.9-127.7c4.6-15.6,9.6-31,15.1-46.3c5.4-15.2,12.2-30,14.7-46c3.6-22.6,0-45.1-11.7-64.9
				c-10-16.9-24.9-31.3-42.3-40.5C180.6-3.6,138.2-3,107.4,18.5C74.2,41.7,58.3,83,69.3,122.5c1.4,5,6.3,8.9,11.6,8.8
				c10.2-0.2,20.3-0.4,30.5-0.6c7.4-0.1,14.1-7.6,11.6-15.2c-0.5-1.5-0.9-3.1-1.3-4.6c-0.3-1.2-0.5-2.3-0.7-3.5
				c-0.1-0.7-0.2-1.4-0.3-2c0.4,2.6-0.1-1.2-0.1-1.4c-0.7-8.4,0-16,3.1-23.9c5.9-15.1,19.5-25.7,35-29c14.8-3.2,31.1,2.1,41.9,12.5
				c11.8,11.4,15.9,28.8,13,44.8c-2.2,12.1-6.2,21.9-12,32.5c-2.9,5.3-5.2,11-7.4,16.7c-6.8,17.8-11.5,36.4-16,54.9
				c-9.6,39.8-17.3,80-24.5,120.3c-1.4,7.6,3.2,15.2,11.6,15.2c10.3,0,20.6,0,30.9,0C211.4,347.9,211.4,323.9,196,323.9z"/>
		</g>
	</g>
</g>
<g>
	<g>
		
			<linearGradient id="SVGID_00000139273118653826121370000015586603547668302260_" gradientUnits="userSpaceOnUse" x1="153.1092" y1="154.8091" x2="153.1092" y2="335.8589">
			<stop  offset="3.072626e-02" style="stop-color:#3F0000"/>
			<stop  offset="3.680089e-02" style="stop-color:#520303"/>
			<stop  offset="4.917701e-02" style="stop-color:#750808"/>
			<stop  offset="5.586592e-02" style="stop-color:#820A0A"/>
			<stop  offset="0.4449" style="stop-color:#AF1515"/>
		</linearGradient>
		<path style="fill:url(#SVGID_00000139273118653826121370000015586603547668302260_);" d="M195.2,335.7c-30.8,0.2-40.9,0.2-41.4,0
			c0,0-0.8-0.3-0.8-0.3c-14-37-28-74.1-41.9-111.1c6.4-23.2,12.7-46.3,19.1-69.5c13.1,35,26.2,70.5,39.1,106.7
			C178.1,286.4,186.7,311.2,195.2,335.7z"/>
		<g>
			
				<linearGradient id="SVGID_00000090254868382645696410000012798794129141926296_" gradientUnits="userSpaceOnUse" x1="153.2428" y1="151.5754" x2="153.2428" y2="336.8589">
				<stop  offset="3.072626e-02" style="stop-color:#3F0000"/>
				<stop  offset="5.907455e-02" style="stop-color:#520303"/>
				<stop  offset="0.1168" style="stop-color:#750808"/>
				<stop  offset="0.148" style="stop-color:#820A0A"/>
				<stop  offset="0.4114" style="stop-color:#AF1515"/>
			</linearGradient>
			<path style="fill:url(#SVGID_00000090254868382645696410000012798794129141926296_);" d="M195.2,323.7
				c-10.8,0.1-21.6,0.2-32.5,0.1c-2.3,0-4.6-0.1-6.8,0c-4.2,0,2.5,0.8,0.3,0c2.8,2.8,5.6,5.6,8.4,8.4c-14-37-28-74.1-41.9-111.1
				c0,2.1,0,4.3,0,6.4c6.4-23.2,12.7-46.3,19.1-69.5c-7.7,0-15.4,0-23.1,0c22.6,60,44.2,120.3,65,180.9c2.1,6.1,8.2,10.2,14.8,8.4
				c6-1.6,10.5-8.6,8.4-14.8c-20.8-60.6-42.5-120.9-65-180.9c-1.9-5-5.9-8.8-11.6-8.8c-5.3,0-10.2,3.7-11.6,8.8
				c-5.2,18.8-10.3,37.6-15.5,56.3c-1.2,4.3-2.7,8.7-3.6,13.1c-1.2,6.1,2.1,11.9,4.2,17.5c3.4,9,6.8,17.9,10.1,26.9
				c7,18.5,14,37,21,55.6c1.6,4.3,3.3,8.6,4.9,13c2.2,5.7,4,11.3,10.5,13.2c2.1,0.6,4.3,0.6,6.4,0.7c12.8,0.2,25.7,0,38.5-0.1
				C210.6,347.6,210.6,323.6,195.2,323.7z"/>
		</g>
	</g>
</g>
<g transform="translate(0.000000,512.000000) scale(0.100000,-0.100000)">
	
		<linearGradient id="SVGID_00000177442845102159498750000014564862072257535660_" gradientUnits="userSpaceOnUse" x1="1521.6459" y1="4458.0049" x2="1551.9219" y2="4458.0049">
		<stop  offset="0" style="stop-color:#BE4115"/>
		<stop  offset="0.5" style="stop-color:#AF1515"/>
		<stop  offset="1" style="stop-color:#AF1515"/>
	</linearGradient>
	<path style="fill:url(#SVGID_00000177442845102159498750000014564862072257535660_);" d="M1656.4,4570.4
		c-22.6-6.3-49.5-29.4-69.4-59.5c-24.6-37.1-48-94.8-61.5-151.2l-3.8-16.2H1673h151.4l-3.8,16.2c-13.5,56.4-36.9,114.3-61.5,151.2
		c-13.9,20.9-36.9,44.2-51.3,51.8C1689.4,4572.4,1672.9,4574.8,1656.4,4570.4z"/>
	
		<linearGradient id="SVGID_00000096053308803426795320000001064490247954362513_" gradientUnits="userSpaceOnUse" x1="1297.0498" y1="4449.7827" x2="1323.0421" y2="4449.7827">
		<stop  offset="0" style="stop-color:#BE4115"/>
		<stop  offset="0.5" style="stop-color:#AF1515"/>
		<stop  offset="1" style="stop-color:#AF1515"/>
	</linearGradient>
	<path style="fill:url(#SVGID_00000096053308803426795320000001064490247954362513_);" d="M1533.7,4549
		c-26.5-9.6-38.1-14.3-58.5-25.2c-73.4-38.9-131.3-96.3-172.8-170.7l-5.3-9.6h86.9h87.1l7.1,29.4c16.2,66.6,40.6,126,68.6,166.9
		c11.5,16.8,11.4,16.5,8.9,16.3C1554.5,4556,1544.6,4552.9,1533.7,4549z"/>
	
		<linearGradient id="SVGID_00000106848307161831139820000011887170489529694884_" gradientUnits="userSpaceOnUse" x1="1789.0099" y1="4449.7495" x2="1814.9926" y2="4449.7495">
		<stop  offset="0" style="stop-color:#BE4115"/>
		<stop  offset="0.5" style="stop-color:#AF1515"/>
		<stop  offset="1" style="stop-color:#AF1515"/>
	</linearGradient>
	<path style="fill:url(#SVGID_00000106848307161831139820000011887170489529694884_);" d="M1789.6,4554.1c0.7-1.2,5.1-7.6,9.7-14.3
		c28-41.1,53.9-104.4,69.3-169.4l6.3-26.9h87.1h86.9l-7.6,13.7c-50.1,90.5-133.1,159.3-233.5,193.6
		C1789.8,4556.9,1787.6,4557.2,1789.6,4554.1z"/>
	
		<linearGradient id="SVGID_00000173875585589222988200000008809950467956660902_" gradientUnits="userSpaceOnUse" x1="1251.8668" y1="4150.5498" x2="1272.9247" y2="4150.5498">
		<stop  offset="0" style="stop-color:#BE4115"/>
		<stop  offset="0.5" style="stop-color:#AF1515"/>
		<stop  offset="1" style="stop-color:#AF1515"/>
	</linearGradient>
	<path style="fill:url(#SVGID_00000173875585589222988200000008809950467956660902_);" d="M1270.7,4278
		c-13.7-42.7-18.8-77.5-18.8-127.5s5.1-84.8,18.8-127.3l5.1-16.2h93.3h93.3l-1,9.6c-5.1,46.8-6.3,61-7.6,95c-1,23.7-1,54.1,0,77.8
		c1.3,34,2.5,48.2,7.6,95.1l1,9.4h-93.3h-93.3L1270.7,4278z"/>
	
		<linearGradient id="SVGID_00000039092769093798211900000000373575344484061869_" gradientUnits="userSpaceOnUse" x1="1502.9296" y1="4150.5498" x2="1536.9735" y2="4150.5498">
		<stop  offset="0" style="stop-color:#BE4115"/>
		<stop  offset="0.5" style="stop-color:#AF1515"/>
		<stop  offset="1" style="stop-color:#AF1515"/>
	</linearGradient>
	<path style="fill:url(#SVGID_00000039092769093798211900000000373575344484061869_);" d="M1512.4,4291.2c-1.2-4-5.4-44.4-7.8-71.4
		c-2.3-29.4-2.3-108.3,0-138.5c2-24.9,6.3-64.1,7.6-70.4l0.8-3.8h160c150.7,0,159.8,0.2,160.6,3c0.5,1.5,2.5,16.8,4.3,34
		c7.3,66.5,7.3,146.6,0,213.1c-1.8,17.1-3.8,32.5-4.3,34.1c-0.8,2.6-9.9,2.8-160.6,2.8S1513.2,4293.8,1512.4,4291.2z"/>
	
		<linearGradient id="SVGID_00000075866918685382637500000012528559420544704163_" gradientUnits="userSpaceOnUse" x1="1883.605" y1="4150.5498" x2="1904.762" y2="4150.5498">
		<stop  offset="0" style="stop-color:#BE4115"/>
		<stop  offset="0.5" style="stop-color:#AF1515"/>
		<stop  offset="1" style="stop-color:#AF1515"/>
	</linearGradient>
	<path style="fill:url(#SVGID_00000075866918685382637500000012528559420544704163_);" d="M1884.6,4284.6
		c5.3-47.3,6.3-61.8,7.6-95.5c0.8-21.9,0.8-55.2,0-77.2c-1.3-33.6-2.3-48.2-7.6-95.3l-1-9.6h93.3h93.3l5.8,18.1
		c11.7,37.1,19.1,85.3,19.1,125.3s-7.4,88.2-19.1,125.3l-5.8,18.1h-93.3h-93.3L1884.6,4284.6z"/>
	
		<linearGradient id="SVGID_00000050633042138949655500000016023451572016690573_" gradientUnits="userSpaceOnUse" x1="1297.2147" y1="3851.376" x2="1323.1721" y2="3851.376">
		<stop  offset="0" style="stop-color:#BE4115"/>
		<stop  offset="0.5" style="stop-color:#AF1515"/>
		<stop  offset="1" style="stop-color:#AF1515"/>
	</linearGradient>
	<path style="fill:url(#SVGID_00000050633042138949655500000016023451572016690573_);" d="M1304.8,3944.1
		c43.7-79.2,117.9-146.3,199.7-180.7c20.1-8.4,51.3-19.3,52.3-18.1c0.3,0.3-3.6,6.9-8.9,14.5c-29.2,42.4-54.9,105-70.4,171.2
		l-6.3,26.7h-87.1h-86.9L1304.8,3944.1z"/>
	
		<linearGradient id="SVGID_00000158722029643170073750000016349403572896881793_" gradientUnits="userSpaceOnUse" x1="1521.6459" y1="3842.9875" x2="1551.9219" y2="3842.9875">
		<stop  offset="0" style="stop-color:#BE4115"/>
		<stop  offset="0.5" style="stop-color:#AF1515"/>
		<stop  offset="1" style="stop-color:#AF1515"/>
	</linearGradient>
	<path style="fill:url(#SVGID_00000158722029643170073750000016349403572896881793_);" d="M1525.4,3941.6
		c9.6-39.9,22.4-76.7,38.9-111c15.5-31.8,30-53.4,48.3-71.7c41.1-40.7,79.8-40.7,120.5,0c35.5,35.3,63.7,92.5,84.1,171.2l7.1,27.5
		H1673h-151.4L1525.4,3941.6z"/>
	
		<linearGradient id="SVGID_00000125585542556679042220000002580594020980406165_" gradientUnits="userSpaceOnUse" x1="1789.8818" y1="3851.4141" x2="1815.7773" y2="3851.4141">
		<stop  offset="0" style="stop-color:#BE4115"/>
		<stop  offset="0.5" style="stop-color:#AF1515"/>
		<stop  offset="1" style="stop-color:#AF1515"/>
	</linearGradient>
	<path style="fill:url(#SVGID_00000125585542556679042220000002580594020980406165_);" d="M1868.1,3929.1
		c-16.5-67.6-38.9-122.5-67.3-165.2c-6.6-9.9-11.5-18.3-10.9-18.6c0.7-0.2,8.6,2.1,17.6,5.1c100.4,34.1,183.5,103.1,233.7,193.8
		l7.6,13.5h-86.9H1875L1868.1,3929.1z"/>
</g>
</svg>
