<?xml version="1.0" encoding="utf-8"?>
<!-- Generator: Adobe Illustrator 27.3.1, SVG Export Plug-In . SVG Version: 6.00 Build 0)  -->
<svg version="1.1" id="Слой_1" xmlns="http://www.w3.org/2000/svg" xmlns:xlink="http://www.w3.org/1999/xlink" x="0px" y="0px"
	 viewBox="0 0 263.6 249.9" style="enable-background:new 0 0 263.6 249.9;" xml:space="preserve">
<style type="text/css">
	.st0{fill:#1F75B3;}
	.st1{fill:#AF1515;}
	.st2{fill:url(#SVGID_1_);}
	.st3{fill:url(#SVGID_00000096018804158722568970000012894078200417555078_);}
</style>
<g>
	<g>
		<path class="st0" d="M181.7,236.5h-51.5c-6.1-48-12.2-96-18.3-144c-18.8,48.1-37.6,96.2-56.5,144.3c-14.4-0.1-28.9-0.2-43.3-0.3
			C30.6,188.4,49,140.3,67.4,92.2c22.9-0.4,45.7-0.8,68.6-1.2c8.8,30.1,17.6,60.2,26.4,90.3c19.1-55.9,38.1-111.8,57.2-167.7
			c10.6,0,21.1,0,31.7,0L181.7,236.5z"/>
		<g>
			<path class="st0" d="M181.7,224.5c-17.2,0-34.3,0-51.5,0c4,4,8,8,12,12c-6.1-48-12.2-96-18.3-144c-1.7-13.5-18.5-16.3-23.6-3.2
				c-18.8,48.1-37.6,96.2-56.5,144.3c3.9-2.9,7.7-5.9,11.6-8.8c-14.4-0.1-28.9-0.2-43.3-0.3c3.9,5.1,7.7,10.1,11.6,15.2
				C42.2,191.5,60.6,143.4,79,95.3c-3.9,2.9-7.7,5.9-11.6,8.8c22.9-0.4,45.7-0.8,68.6-1.2c-3.9-2.9-7.7-5.9-11.6-8.8
				c8.8,30.1,17.6,60.2,26.4,90.3c3.4,11.8,19.4,11,23.1,0C193,128.6,212,72.7,231.1,16.8c-3.9,2.9-7.7,5.9-11.6,8.8
				c10.6,0,21.1,0,31.7,0c-3.9-5.1-7.7-10.1-11.6-15.2c-7.8,25.1-15.7,50.2-23.5,75.4c-12.5,40-24.9,80-37.4,120
				c-2.9,9.2-5.7,18.3-8.6,27.5c-4.6,14.8,18.6,21.1,23.1,6.4c7.8-25.1,15.7-50.2,23.5-75.4c12.5-40,24.9-80,37.4-120
				c2.9-9.2,5.7-18.3,8.6-27.5c2.3-7.5-4-15.2-11.6-15.2c-10.6,0-21.1,0-31.7,0c-5.5,0-9.9,3.8-11.6,8.8
				c-19.1,55.9-38.1,111.8-57.2,167.7c7.7,0,15.4,0,23.1,0c-8.8-30.1-17.6-60.2-26.4-90.3c-1.5-5-6.3-8.9-11.6-8.8
				c-22.9,0.4-45.7,0.8-68.6,1.2c-5.7,0.1-9.6,3.7-11.6,8.8C37.4,137.1,19,185.2,0.6,233.3c-2.9,7.5,4.4,15.1,11.6,15.2
				c14.4,0.1,28.9,0.2,43.3,0.3c5.7,0,9.6-3.8,11.6-8.8c18.8-48.1,37.6-96.2,56.5-144.3c-7.9-1.1-15.7-2.1-23.6-3.2
				c6.1,48,12.2,96,18.3,144c0.8,6.4,4.8,12,12,12c17.2,0,34.3,0,51.5,0C197.1,248.5,197.2,224.5,181.7,224.5z"/>
		</g>
	</g>
</g>
<g>
	<g>
		<path class="st1" d="M181.8,236.5h-51.5c-6.2-26.8-12.5-53.6-18.7-80.4c8.1-21.7,16.2-43.4,24.3-65.1
			c8.8,30.1,17.7,60.2,26.5,90.3c19.1-55.9,38.1-111.8,57.2-167.7c10.6,0,21.1,0,31.7,0L181.8,236.5z"/>
		<g>
			<path class="st1" d="M181.8,224.5c-17.2,0-34.3,0-51.5,0c3.9,2.9,7.7,5.9,11.6,8.8c-6.2-26.8-12.5-53.6-18.7-80.4
				c0,2.1,0,4.3,0,6.4c8.1-21.7,16.2-43.4,24.3-65.1c-7.7,0-15.4,0-23.1,0c8.8,30.1,17.7,60.2,26.5,90.3c3.4,11.8,19.4,11,23.1,0
				c19.1-55.9,38.1-111.8,57.2-167.7c-3.9,2.9-7.7,5.9-11.6,8.8c10.6,0,21.1,0,31.7,0c-3.9-5.1-7.7-10.1-11.6-15.2
				c-7.8,25.1-15.7,50.2-23.5,75.4c-12.5,40-24.9,80-37.4,120c-2.9,9.2-5.7,18.3-8.6,27.5c-4.6,14.8,18.6,21.1,23.1,6.4
				c7.8-25.1,15.7-50.2,23.5-75.4c12.5-40,24.9-80,37.4-120c2.9-9.2,5.7-18.3,8.6-27.5c2.3-7.5-4-15.2-11.6-15.2
				c-10.6,0-21.1,0-31.7,0c-5.5,0-9.9,3.8-11.6,8.8C189,66.3,170,122.2,150.9,178.1c7.7,0,15.4,0,23.1,0
				c-8.8-30.1-17.7-60.2-26.5-90.3c-3.5-12-19.1-10.7-23.1,0c-4.6,12.4-9.3,24.8-13.9,37.2c-2.2,5.9-4.4,11.8-6.6,17.7
				c-1.1,3.1-2.6,6.2-3.5,9.3c-1.2,4.2-0.2,8,0.8,12.1c5.9,25.2,11.7,50.4,17.6,75.6c1.2,5.1,6.5,8.8,11.6,8.8c17.2,0,34.3,0,51.5,0
				C197.3,248.5,197.3,224.5,181.8,224.5z"/>
		</g>
	</g>
</g>
<g>
	<g>
		<linearGradient id="SVGID_1_" gradientUnits="userSpaceOnUse" x1="146.7468" y1="90.9627" x2="146.7468" y2="236.4564">
			<stop  offset="3.072626e-02" style="stop-color:#3F0000"/>
			<stop  offset="3.680089e-02" style="stop-color:#520303"/>
			<stop  offset="4.917701e-02" style="stop-color:#750808"/>
			<stop  offset="5.586592e-02" style="stop-color:#820A0A"/>
			<stop  offset="0.4449" style="stop-color:#AF1515"/>
		</linearGradient>
		<path class="st2" d="M181.8,236.5h-51.5c-6.2-26.8-12.5-53.6-18.7-80.4c8.1-21.7,16.2-43.4,24.3-65.1
			c8.8,30.1,17.7,60.2,26.5,90.3C168.9,199.7,175.4,218.1,181.8,236.5z"/>
		<g>
			
				<linearGradient id="SVGID_00000004531541176993108840000014072112079423385507_" gradientUnits="userSpaceOnUse" x1="146.9118" y1="87.7995" x2="146.9118" y2="237.4564">
				<stop  offset="3.072626e-02" style="stop-color:#3F0000"/>
				<stop  offset="5.907455e-02" style="stop-color:#520303"/>
				<stop  offset="0.1168" style="stop-color:#750808"/>
				<stop  offset="0.148" style="stop-color:#820A0A"/>
				<stop  offset="0.4114" style="stop-color:#AF1515"/>
			</linearGradient>
			<path style="fill:url(#SVGID_00000004531541176993108840000014072112079423385507_);" d="M181.8,224.5c-17.2,0-34.3,0-51.5,0
				c3.9,2.9,7.7,5.9,11.6,8.8c-6.2-26.8-12.5-53.6-18.7-80.4c0,2.1,0,4.3,0,6.4c8.1-21.7,16.2-43.4,24.3-65.1c-7.7,0-15.4,0-23.1,0
				c7.2,24.5,14.3,48.9,21.5,73.4c7.1,24.4,15.9,48.2,24.3,72.1c2.1,6.1,8.2,10.2,14.8,8.4c5.9-1.6,10.5-8.6,8.4-14.8
				c-8.4-23.9-17.2-47.8-24.3-72.1c-7.2-24.5-14.3-48.9-21.5-73.4c-3.5-12-19.1-10.7-23.1,0c-4.6,12.4-9.3,24.8-13.9,37.2
				c-2.2,5.9-4.4,11.8-6.6,17.7c-1.1,3.1-2.6,6.2-3.5,9.3c-1.2,4.2-0.2,8,0.8,12.1c5.9,25.2,11.7,50.4,17.6,75.6
				c1.2,5.1,6.5,8.8,11.6,8.8c17.2,0,34.3,0,51.5,0C197.3,248.5,197.3,224.5,181.8,224.5z"/>
		</g>
	</g>
</g>
</svg>
