<?xml version="1.0" encoding="utf-8"?>
<!-- Generator: Adobe Illustrator 27.3.1, SVG Export Plug-In . SVG Version: 6.00 Build 0)  -->
<svg version="1.1" id="Слой_1" xmlns="http://www.w3.org/2000/svg" xmlns:xlink="http://www.w3.org/1999/xlink" x="0px" y="0px"
	 viewBox="0 0 270.1 350.4" style="enable-background:new 0 0 270.1 350.4;" xml:space="preserve">
<style type="text/css">
	.st0{fill:#1F75B3;}
	.st1{fill:url(#SVGID_1_);}
	.st2{fill:url(#SVGID_00000025413411835722438880000003617890310397030047_);}
	.st3{fill:url(#SVGID_00000018236372587650751730000014081742916150102454_);}
	.st4{fill:url(#SVGID_00000062150158955651527080000016734928120853552817_);}
	
		.st5{fill:url(#SVGID_00000083050345673110197650000003283153171002994308_);stroke:url(#SVGID_00000088110983269943873860000012905808448175160215_);stroke-width:2;stroke-miterlimit:10;}
</style>
<g>
	<g>
		<path class="st0" d="M54.9,336.2c-13.7,0-27.5,0-41.2,0c17.5-59.7,35-119.3,52.4-179c42.7-1.7,64.1-2.5,64.1-2.3
			c0,0.1-8.3,0.5-24.9,1.3C88.5,216.2,71.7,276.2,54.9,336.2z"/>
		<g>
			<path class="st0" d="M54.9,324.2c-13.7,0-27.5,0-41.2,0c3.9,5.1,7.7,10.1,11.6,15.2c17.5-59.7,35-119.3,52.4-179
				c-3.9,2.9-7.7,5.9-11.6,8.8c15.9-0.6,31.7-1.3,47.6-1.8c4-0.1,8.1-0.3,12.1-0.4c1,0,2.1,0,3.2-0.1c2-0.2,1.7,0.9-2-0.4
				c0-7.7,0-15.4,0-23.1c4.4-1.3,3.2-0.4,1.2-0.3c-1.6,0.1-3.2,0.2-4.8,0.3c-6.1,0.3-12.1,0.6-18.2,0.9c-5.3,0.3-10.1,3.6-11.6,8.8
				c-16.8,60-33.6,120-50.3,180c-4.2,14.9,19,21.3,23.1,6.4c16.8-60,33.6-120,50.3-180c-3.9,2.9-7.7,5.9-11.6,8.8
				c6.4-0.3,12.8-0.6,19.2-1c2.8-0.1,6.3,0,8.9-0.8c11.9-3.5,10.9-19.2,0-23.1c-2-0.7-4.7-0.4-6.8-0.4c-4,0.1-7.9,0.3-11.9,0.4
				c-16.2,0.6-32.4,1.2-48.5,1.9c-5.4,0.2-10,3.6-11.6,8.8c-17.5,59.7-35,119.3-52.4,179c-2.2,7.5,3.9,15.2,11.6,15.2
				c13.7,0,27.5,0,41.2,0C70.3,348.2,70.4,324.2,54.9,324.2z"/>
		</g>
	</g>
</g>
<g>
	<g>
		<linearGradient id="SVGID_1_" gradientUnits="userSpaceOnUse" x1="77.7427" y1="174.6693" x2="256.8991" y2="174.6693">
			<stop  offset="0" style="stop-color:#BE4115"/>
			<stop  offset="0.1425" style="stop-color:#AF1515"/>
			<stop  offset="1" style="stop-color:#AF1515"/>
		</linearGradient>
		<path class="st1" d="M196,335.9c-10.3,0-20.6,0-30.9,0c14.4-84.6,33.7-144.3,50.2-185.5c7.5-18.9,20.5-48.9,7.8-76.5
			c-8.3-18.1-28.3-37.5-55-37.6c-28-0.2-51.2,21.1-58.2,45c-4.8,16.6-0.8,31.1,1.4,37.4c-10.2,0.2-20.3,0.4-30.5,0.6
			c-2-7-6.8-27.3,1.8-50.8c1.5-4.1,9.7-25.5,32.3-40.6c29.4-19.7,61.2-14,68.1-12.5c36.2,7.4,63,36.2,71.1,65.7
			c7.5,27.5-2.2,51.7-7.8,66.3C230.7,188.5,211.8,248.8,196,335.9z"/>
		<g>
			
				<linearGradient id="SVGID_00000147928768021280839280000006692007130036340106_" gradientUnits="userSpaceOnUse" x1="76.7427" y1="174.6826" x2="257.8991" y2="174.6826">
				<stop  offset="0" style="stop-color:#BE4115"/>
				<stop  offset="0.1201" style="stop-color:#B01915"/>
				<stop  offset="0.5" style="stop-color:#AF1515"/>
				<stop  offset="1" style="stop-color:#AF1515"/>
			</linearGradient>
			<path style="fill:url(#SVGID_00000147928768021280839280000006692007130036340106_);" d="M196,323.9c-10.3,0-20.6,0-30.9,0
				c3.9,5.1,7.7,10.1,11.6,15.2c10.6-62,25.8-123.5,48.9-182.2c5.8-14.6,11.7-29.1,13.8-44.8c2.5-18.3-0.3-36.8-10.5-52.5
				c-18.5-28.5-54-43.8-86.6-30.3c-36,14.8-55.1,55.5-42.6,92.6c3.9-5.1,7.7-10.1,11.6-15.2c-10.2,0.2-20.3,0.4-30.5,0.6
				c3.9,2.9,7.7,5.9,11.6,8.8c-0.7-2.3-1.2-4.7-1.7-7.1c-0.1-0.7-0.3-1.4-0.4-2.1c-0.6-3.6,0.1,1.4-0.1-0.9
				c-0.2-2.2-0.4-4.4-0.5-6.7c-0.3-9.6,1.2-18.9,4.5-28c0.2-0.6,0.6-1.2,0.7-1.8c0.3-1.3-1.2,2.5-0.5,1.2c0.3-0.5,0.5-1.1,0.7-1.6
				c1.2-2.5,2.5-5,3.9-7.4c4.3-7.3,8.5-12.4,15.1-18.3c13.5-12.1,31.4-17.7,48.3-18c3.1,0,6.3,0.1,9.4,0.3c1.5,0.1,3,0.3,4.5,0.5
				c-3-0.3-0.3,0,1,0.2c6.7,1.2,13.8,3.2,19.7,6c31.8,14.7,53.3,47.8,46.4,83.4c-2.8,14.7-9,28.4-14,42.4
				c-4.9,13.8-9.5,27.7-13.8,41.7c-13.2,43.6-23.3,88-31.5,132.8c-1.2,6.4,1.7,12.9,8.4,14.8c5.8,1.6,13.6-2,14.8-8.4
				c7.8-43,17.5-85.7,29.9-127.7c4.6-15.6,9.6-31,15.1-46.3c5.4-15.2,12.2-30,14.7-46c3.6-22.6,0-45.1-11.7-64.9
				c-10-16.9-24.9-31.3-42.3-40.5C180.6-3.6,138.2-3,107.4,18.5C74.2,41.7,58.3,83,69.3,122.5c1.4,5,6.3,8.9,11.6,8.8
				c10.2-0.2,20.3-0.4,30.5-0.6c7.4-0.1,14.1-7.6,11.6-15.2c-8.5-25.2,2-50.9,25.5-62.7c23-11.6,49.6,1,61.8,22.3
				c14.6,25.5,0.4,54.3-9.1,78.9c-8.8,22.6-16.4,45.7-23,69c-10.3,36.1-18.2,72.8-24.5,109.7c-1.3,7.6,3.2,15.2,11.6,15.2
				c10.3,0,20.6,0,30.9,0C211.4,347.9,211.4,323.9,196,323.9z"/>
		</g>
	</g>
</g>
<g>
	<g>
		
			<linearGradient id="SVGID_00000115506286859014699750000009524546788147043723_" gradientUnits="userSpaceOnUse" x1="153.1092" y1="154.8091" x2="153.1092" y2="335.8589">
			<stop  offset="3.072626e-02" style="stop-color:#3F0000"/>
			<stop  offset="3.680089e-02" style="stop-color:#520303"/>
			<stop  offset="4.917701e-02" style="stop-color:#750808"/>
			<stop  offset="5.586592e-02" style="stop-color:#820A0A"/>
			<stop  offset="0.4449" style="stop-color:#AF1515"/>
		</linearGradient>
		<path style="fill:url(#SVGID_00000115506286859014699750000009524546788147043723_);" d="M195.2,335.7c-30.8,0.2-40.9,0.2-41.4,0
			c0,0-0.8-0.3-0.8-0.3c-14-37-28-74.1-41.9-111.1c6.4-23.2,12.7-46.3,19.1-69.5c13.1,35,26.2,70.5,39.1,106.7
			C178.1,286.4,186.7,311.2,195.2,335.7z"/>
		<g>
			
				<linearGradient id="SVGID_00000096743694536165787180000002085940509572403078_" gradientUnits="userSpaceOnUse" x1="153.2428" y1="151.5754" x2="153.2428" y2="336.8589">
				<stop  offset="3.072626e-02" style="stop-color:#3F0000"/>
				<stop  offset="5.907455e-02" style="stop-color:#520303"/>
				<stop  offset="0.1168" style="stop-color:#750808"/>
				<stop  offset="0.148" style="stop-color:#820A0A"/>
				<stop  offset="0.4114" style="stop-color:#AF1515"/>
			</linearGradient>
			<path style="fill:url(#SVGID_00000096743694536165787180000002085940509572403078_);" d="M195.2,323.7
				c-10.8,0.1-21.6,0.2-32.5,0.1c-2.3,0-4.6-0.1-6.8,0c-4.2,0,2.5,0.8,0.3,0c2.8,2.8,5.6,5.6,8.4,8.4c-14-37-28-74.1-41.9-111.1
				c0,2.1,0,4.3,0,6.4c6.4-23.2,12.7-46.3,19.1-69.5c-7.7,0-15.4,0-23.1,0c22.6,60,44.2,120.3,65,180.9c2.1,6.1,8.2,10.2,14.8,8.4
				c6-1.6,10.5-8.6,8.4-14.8c-20.8-60.6-42.5-120.9-65-180.9c-1.9-5-5.9-8.8-11.6-8.8c-5.3,0-10.2,3.7-11.6,8.8
				c-5.2,18.8-10.3,37.6-15.5,56.3c-1.2,4.3-2.7,8.7-3.6,13.1c-1.2,6.1,2.1,11.9,4.2,17.5c3.4,9,6.8,17.9,10.1,26.9
				c7,18.5,14,37,21,55.6c1.6,4.3,3.3,8.6,4.9,13c2.2,5.7,4,11.3,10.5,13.2c2.1,0.6,4.3,0.6,6.4,0.7c12.8,0.2,25.7,0,38.5-0.1
				C210.6,347.6,210.6,323.6,195.2,323.7z"/>
		</g>
	</g>
</g>
<linearGradient id="SVGID_00000002368218330375237350000013418897458255359925_" gradientUnits="userSpaceOnUse" x1="377.6266" y1="84.8465" x2="377.6266" y2="84.8465">
	<stop  offset="0" style="stop-color:#BE4115"/>
	<stop  offset="0.5" style="stop-color:#AF1515"/>
	<stop  offset="1" style="stop-color:#AF1515"/>
</linearGradient>
<linearGradient id="SVGID_00000183245639583084364780000006451456187349437864_" gradientUnits="userSpaceOnUse" x1="377.6266" y1="84.8465" x2="377.6266" y2="84.8465">
	<stop  offset="0" style="stop-color:#BE4115"/>
	<stop  offset="0.5" style="stop-color:#AF1515"/>
	<stop  offset="1" style="stop-color:#AF1515"/>
</linearGradient>
<path style="fill:url(#SVGID_00000002368218330375237350000013418897458255359925_);stroke:url(#SVGID_00000183245639583084364780000006451456187349437864_);stroke-width:2;stroke-miterlimit:10;" d="
	M377.6,84.8"/>
</svg>
